<?xml version="1.0" encoding="utf-8"?>
<!-- Generator: Adobe Illustrator 21.0.2, SVG Export Plug-In . SVG Version: 6.00 Build 0)  -->
<svg version="1.1" id="Layer_1" xmlns="http://www.w3.org/2000/svg" xmlns:xlink="http://www.w3.org/1999/xlink" x="0px" y="0px"
	 width="213.6px" height="79.4px" viewBox="0 0 213.6 79.4" style="enable-background:new 0 0 213.6 79.4;" xml:space="preserve">
<style type="text/css">
	.st0{fill:#E6E7E8;}
</style>
<path class="st0" d="M21.2,11.7c0.9-0.4,1.8-0.7,2.7-1c0.8-0.2,1.5-0.5,2.3-0.7l0.4-1.8L27.5,4l0.1-0.5l0.5-0.1
	c1.2-0.2,2.4-0.4,3.6-0.5c1.2-0.1,2.4-0.2,3.6-0.2c1.2,0,2.4,0.1,3.6,0.2c1.2,0.1,2.4,0.3,3.6,0.5l0.5,0.1L43.2,4l0.9,4.2l0.4,1.8
	c1.9,0.5,3.7,1.1,5.4,1.8c1.8,0.7,3.5,1.6,5.1,2.6l1.6-1l3.6-2.4l0.4-0.3l0.4,0.3c2,1.4,3.8,3,5.6,4.7c1.7,1.7,3.3,3.6,4.7,5.6
	l0.3,0.4l-0.3,0.4l-2.4,3.6l-1,1.6c1,1.6,1.8,3.3,2.6,5.1c0.7,1.7,1.3,3.5,1.8,5.4l1.8,0.4l4.2,0.9l0.5,0.1l0.1,0.5
	c0.2,1.2,0.4,2.4,0.5,3.6c0.1,1.2,0.2,2.4,0.2,3.6c0,1.2-0.1,2.4-0.2,3.6c-0.1,1-0.2,1.9-0.3,2.9h-1.4c0.2-1,0.3-2,0.4-3
	c0.1-1.2,0.1-2.3,0.1-3.5c0-1.2,0-2.4-0.1-3.5c-0.1-1-0.2-2-0.4-3l-3.7-0.8l-2.3-0.5L71,39l-0.1-0.4c-0.5-1.9-1.1-3.8-1.8-5.6
	c-0.8-1.8-1.7-3.6-2.7-5.3l-0.2-0.4l0.2-0.4l1.3-1.9l2.1-3.2c-1.3-1.8-2.7-3.4-4.3-5c-1.6-1.6-3.2-3-5-4.3l-3.2,2.1l-1.9,1.3
	L55,16.1l-0.4-0.2c-1.7-1-3.4-1.9-5.3-2.7c-1.8-0.7-3.7-1.4-5.6-1.8l-0.4-0.1l-0.1-0.4l-0.5-2.3l-0.8-3.7c-1-0.2-2-0.3-3-0.4
	c-1.2-0.1-2.3-0.1-3.5-0.1c-1.2,0-2.4,0-3.5,0.1c-1,0.1-2,0.2-3,0.4L28,8.5l-0.5,2.3l-0.1,0.4L27,11.3c-0.9,0.2-1.8,0.5-2.7,0.7
	c-0.9,0.3-1.8,0.6-2.6,0.9L21.2,11.7L21.2,11.7z"/>
<path class="st0" d="M60,53.4c0.3-1.1,0.5-2.1,0.6-3.2c0.1-1.1,0.2-2.2,0.2-3.3c0-7-2.9-13.4-7.5-18c-4.6-4.6-11-7.5-18-7.5
	c-7,0-13.4,2.9-18,7.5c-4.6,4.6-7.5,11-7.5,18c0,7,2.9,13.4,7.5,18c4.6,4.6,11,7.5,18,7.5v2.3c-7.7,0-14.6-3.1-19.6-8.1
	c-5-5-8.1-12-8.1-19.6c0-7.7,3.1-14.6,8.1-19.6c5-5,12-8.1,19.6-8.1c7.7,0,14.6,3.1,19.6,8.1c5,5,8.1,12,8.1,19.6
	c0,1.2-0.1,2.4-0.2,3.6c-0.1,1-0.3,2-0.5,2.9H60L60,53.4z"/>
<path class="st0" d="M65.5,53.4c0.2-0.8,0.3-1.7,0.4-2.5c0.2-1.3,0.3-2.7,0.3-4c0-8.5-3.5-16.2-9-21.8c-5.6-5.6-13.3-9-21.8-9
	c-1.4,0-2.7,0.1-4,0.3c-1.3,0.2-2.6,0.4-4,0.8L27,15.7c1.4-0.4,2.7-0.6,4.1-0.8c1.4-0.2,2.8-0.3,4.2-0.3c8.9,0,17,3.6,22.8,9.5
	c5.8,5.8,9.5,13.9,9.5,22.8c0,1.4-0.1,2.8-0.3,4.2c-0.1,0.8-0.2,1.6-0.4,2.3H65.5L65.5,53.4z"/>
<path class="st0" d="M46.3,40.5L46.3,40.5c-1.7-3-4.6-5.1-7.7-5.9c-3.1-0.8-6.6-0.5-9.6,1.3h0c-3,1.7-5.1,4.5-5.9,7.7
	c-0.8,3.1-0.5,6.6,1.3,9.6v0c1.7,3,4.5,5.1,7.7,5.9c3.1,0.8,6.6,0.5,9.6-1.3h0c3-1.7,5.1-4.6,5.9-7.7C48.4,47,48,43.6,46.3,40.5z
	 M46.2,49.8c-0.7,2.8-2.5,5.3-5.2,6.8l0,0c-2.7,1.5-5.7,1.9-8.5,1.1c-2.8-0.7-5.3-2.5-6.8-5.2h0c-1.5-2.7-1.9-5.7-1.1-8.5
	c0.7-2.8,2.5-5.3,5.2-6.8l0,0c2.7-1.5,5.7-1.9,8.5-1.1c2.8,0.7,5.3,2.5,6.8,5.2l0,0C46.6,43.9,46.9,47,46.2,49.8z"/>
<path class="st0" d="M21.3,38.7c-1.5,2.5-2.2,5.3-2.2,8.1c0,2.8,0.7,5.6,2.2,8.1v0c1.4,2.5,3.5,4.5,5.9,5.9c2.4,1.4,5.2,2.2,8.1,2.2
	v1.4c-3.2,0-6.2-0.8-8.8-2.4c-2.6-1.5-4.9-3.7-6.5-6.5l0,0c-1.6-2.7-2.4-5.8-2.4-8.8c0-3.1,0.8-6.1,2.4-8.8L21.3,38.7L21.3,38.7z"/>
<path class="st0" d="M50.2,53.4c0.9-2.1,1.4-4.3,1.4-6.5c0-2.8-0.7-5.6-2.2-8.1v0c-1.4-2.5-3.5-4.5-5.9-5.9
	c-2.4-1.4-5.2-2.2-8.1-2.2v-1.4c3.2,0,6.2,0.8,8.8,2.4c2.6,1.5,4.9,3.7,6.5,6.5l0,0c1.6,2.7,2.4,5.8,2.4,8.8c0,2.2-0.4,4.4-1.3,6.5
	H50.2L50.2,53.4z"/>
<path class="st0" d="M24.9,28.8c-3.2,1.9-5.8,4.5-7.6,7.6c-1.8,3.1-2.8,6.7-2.8,10.4c0,4.7,1.6,9.2,4.3,12.7
	c2.7,3.6,6.6,6.2,11.2,7.5l-0.4,1.4c-4.9-1.3-9-4.2-11.9-8c-2.9-3.8-4.6-8.5-4.6-13.6c0-4,1.1-7.8,3-11.1c1.9-3.3,4.7-6.2,8.2-8.2
	L24.9,28.8L24.9,28.8z"/>
<path class="st0" d="M56.2,46.8c0-3.7-1-7.3-2.8-10.4c-1.8-3.1-4.4-5.8-7.6-7.6l0.7-1.2c3.4,2,6.2,4.8,8.2,8.2c1.9,3.3,3,7.2,3,11.1
	H56.2L56.2,46.8z"/>
<path class="st0" d="M68.3,64.6c0-1.1,0-2-0.1-2.8c-0.1-0.8-0.3-1.4-0.6-1.9c-0.3-0.5-0.7-0.9-1.2-1.2c-0.5-0.3-1.2-0.5-2.1-0.6
	c-0.9-0.1-2-0.2-3.2-0.3c-1.3,0-2.8-0.1-4.6-0.1c-1.7,0-3.1,0-4.3,0.1c-1.2,0-2.3,0.1-3.1,0.3c-0.9,0.1-1.6,0.3-2.1,0.6
	c-0.6,0.3-1,0.6-1.3,1.1c-0.3,0.5-0.6,1-0.7,1.7c-0.1,0.7-0.2,1.5-0.3,2.4c0,0.9-0.1,2-0.1,3.3c0,1.3,0,2.4,0.1,3.3
	c0,0.9,0.1,1.8,0.3,2.4c0.1,0.7,0.4,1.2,0.7,1.7c0.3,0.4,0.8,0.8,1.3,1.1c0.6,0.3,1.3,0.5,2.1,0.6c0.9,0.1,1.9,0.2,3.1,0.3
	c1.2,0,2.7,0.1,4.3,0.1c1.7,0,3.2,0,4.4,0c1.2,0,2.3-0.1,3.2-0.2c0.9-0.1,1.6-0.3,2.1-0.6c0.6-0.3,1-0.7,1.3-1.2
	c0.3-0.5,0.5-1.1,0.7-1.9c0.1-0.8,0.2-1.7,0.2-2.8c0-1.1,0-2.4,0-4H55.7v4.1h7c0,0.3,0,0.6,0,0.8c0,0.2-0.1,0.4-0.2,0.5
	c-0.1,0.1-0.3,0.2-0.6,0.3c-0.3,0.1-0.6,0.1-1.1,0.2c-0.5,0-1,0.1-1.8,0.1c-0.7,0-1.6,0-2.6,0c-1,0-1.9,0-2.6,0
	c-0.7,0-1.3-0.1-1.8-0.2c-0.5-0.1-0.8-0.2-1.1-0.4c-0.3-0.2-0.5-0.5-0.6-0.8c-0.1-0.3-0.2-0.8-0.2-1.3c0-0.5,0-1.2,0-1.9
	c0-0.8,0-1.4,0-2c0-0.5,0.1-1,0.2-1.3c0.1-0.3,0.3-0.6,0.6-0.8c0.3-0.2,0.6-0.3,1.1-0.4c0.5-0.1,1.1-0.1,1.8-0.2c0.7,0,1.6,0,2.6,0
	c1,0,1.9,0,2.6,0c0.7,0,1.3,0,1.8,0.1c0.5,0,0.8,0.1,1.1,0.2c0.3,0.1,0.4,0.2,0.6,0.4c0.1,0.2,0.2,0.4,0.2,0.6c0,0.2,0,0.5,0,0.9
	H68.3L68.3,64.6z"/>
<polygon class="st0" points="71.3,76.3 91,76.3 91,71.8 77,71.8 77,69.3 90.4,69.3 90.4,64.9 77,64.9 77,62.4 91,62.4 91,58
	71.3,58 71.3,76.3 "/>
<path class="st0" d="M112.7,68.6V58h-9.5l-10.1,7.6v7.2h14v3.6h5.6v-3.6h3.3v-4.1H112.7z M107.1,68.6h-9v-0.5l7.7-5.4h1.4V68.6z"/>
<path class="st0" d="M139.7,69.7c-0.2-0.3-0.5-0.5-0.8-0.7c-0.3-0.2-0.7-0.4-1.2-0.6c0.5-0.2,0.8-0.4,1.2-0.7c0.3-0.3,0.6-0.6,0.8-1
	c0.2-0.4,0.4-0.9,0.4-1.5c0.1-0.6,0.1-1.2,0.1-2c0-1-0.1-1.9-0.3-2.6c-0.2-0.7-0.6-1.2-1-1.6c-0.5-0.4-1-0.7-1.8-0.9
	c-0.7-0.2-1.5-0.3-2.5-0.3h-16.4v18.3h5.6v-5.1h8.9c0.4,0,0.6,0.1,0.9,0.2c0.2,0.1,0.4,0.3,0.6,0.4c0.1,0.2,0.2,0.4,0.3,0.6
	c0.1,0.2,0.1,0.4,0.1,0.6v3.3h5.6v-4.1c0-0.6,0-1.1-0.1-1.5C140.1,70.3,139.9,70,139.7,69.7z M134.4,65.7c-0.1,0.3-0.3,0.5-0.6,0.6
	c-0.3,0.1-0.6,0.2-1,0.2h-9v-3.7h9c0.4,0,0.7,0.1,1,0.2c0.3,0.1,0.4,0.3,0.6,0.6c0.1,0.3,0.2,0.6,0.2,1.1
	C134.6,65,134.6,65.4,134.4,65.7z"/>
<path class="st0" d="M162,61.2c-0.4-0.8-1-1.4-1.7-1.8c-0.7-0.4-1.6-0.6-2.6-0.6h-14.3v17.5h2.6v-6.4h11.6c1,0,1.9-0.2,2.7-0.6
	c0.8-0.4,1.3-1,1.8-1.8c0.4-0.8,0.6-1.9,0.6-3.1C162.6,63.1,162.4,62,162,61.2z M159.7,66.1c-0.2,0.5-0.5,0.8-0.9,1
	c-0.4,0.2-0.8,0.3-1.3,0.3H146v-6.4h11.6c0.5,0,0.9,0.1,1.3,0.3c0.4,0.2,0.7,0.6,0.9,1c0.2,0.5,0.3,1.1,0.3,1.8
	C160,65,159.9,65.7,159.7,66.1z"/>
<path class="st0" d="M184.1,64.1c-0.1-1-0.2-1.8-0.4-2.4c-0.2-0.7-0.6-1.2-1-1.6c-0.4-0.4-1-0.7-1.7-1c-0.7-0.2-1.6-0.4-2.7-0.5
	c-1.1-0.1-2.4-0.1-3.9-0.1c-1.5,0-2.8,0-3.9,0.1c-1.1,0.1-2,0.2-2.7,0.5c-0.7,0.2-1.3,0.5-1.8,1c-0.4,0.4-0.8,1-1,1.6
	c-0.2,0.7-0.4,1.5-0.4,2.4c-0.1,1-0.1,2.1-0.1,3.4c0,1.3,0,2.5,0.1,3.5c0.1,1,0.3,1.8,0.5,2.4c0.2,0.7,0.6,1.2,1.1,1.6
	c0.5,0.4,1.1,0.7,1.8,0.9c0.7,0.2,1.6,0.4,2.7,0.4c1.1,0.1,2.3,0.1,3.7,0.1c1.4,0,2.7,0,3.7-0.1c1.1-0.1,1.9-0.2,2.7-0.4
	c0.7-0.2,1.3-0.5,1.8-0.9c0.5-0.4,0.8-0.9,1-1.6c0.2-0.7,0.4-1.5,0.5-2.5c0.1-1,0.1-2.1,0.1-3.5C184.2,66.2,184.1,65.1,184.1,64.1z
	 M181.5,70c0,0.7-0.1,1.3-0.3,1.8c-0.2,0.5-0.4,0.9-0.7,1.2c-0.3,0.3-0.7,0.5-1.3,0.7c-0.5,0.2-1.2,0.3-2,0.3
	c-0.8,0.1-1.8,0.1-2.9,0.1c-1.2,0-2.2,0-3-0.1c-0.8-0.1-1.5-0.2-2-0.4c-0.5-0.2-1-0.4-1.3-0.8c-0.3-0.3-0.5-0.7-0.7-1.2
	c-0.1-0.5-0.2-1.1-0.3-1.8c0-0.7-0.1-1.5,0-2.4c0-1.1,0-2,0.1-2.7c0-0.7,0.1-1.4,0.3-1.9c0.1-0.5,0.4-0.9,0.7-1.1
	c0.3-0.3,0.7-0.5,1.3-0.6c0.5-0.1,1.2-0.2,2-0.2c0.8,0,1.8-0.1,3,0c1.1,0,2.1,0,2.9,0.1c0.8,0,1.5,0.1,2,0.3c0.5,0.1,1,0.4,1.3,0.6
	c0.3,0.3,0.5,0.7,0.7,1.2c0.1,0.5,0.2,1.1,0.3,1.8c0,0.7,0.1,1.6,0.1,2.6C181.6,68.5,181.5,69.3,181.5,70z"/>
<polygon class="st0" points="188.7,58.8 186.1,58.8 186.1,76.3 202.2,76.3 202.2,73.9 188.7,73.9 188.7,58.8 "/>
<polygon class="st0" points="206,58.8 203.4,58.8 203.4,76.3 206,76.3 206,58.8 "/>
</svg>
