<?xml version="1.0" encoding="utf-8"?>
<!-- Generator: Adobe Illustrator 21.0.2, SVG Export Plug-In . SVG Version: 6.00 Build 0)  -->
<svg version="1.1" id="Layer_1" xmlns="http://www.w3.org/2000/svg" xmlns:xlink="http://www.w3.org/1999/xlink" x="0px" y="0px"
	 width="213.6px" height="79.4px" viewBox="0 0 213.6 79.4" style="enable-background:new 0 0 213.6 79.4;" xml:space="preserve">
<style type="text/css">
	.st0{fill:none;stroke:#E6E7E8;stroke-width:1.35;}
	.st1{display:none;}
	.st2{display:inline;fill:none;}
	.st3{fill:none;stroke:#E6E7E8;stroke-width:2;}
	.st4{display:inline;fill:none;stroke:#E6E7E8;stroke-width:0.25;}
	.st5{fill:none;stroke:#E6E7E8;stroke-width:1.5;}
	.st6{fill:none;stroke:#E6E7E8;stroke-width:1.3;}
	.st7{fill:none;stroke:#E6E7E8;stroke-width:0.75;}
</style>
<path class="st0" d="M21.5,12.3c0.9-0.4,1.8-0.7,2.7-1c0.8-0.3,1.7-0.5,2.5-0.7l0.4-1l0.5-2.3L27.8,6l0.6-1.9
	c1.1-0.2,2.2-0.3,3.3-0.4c1.2-0.1,2.4-0.1,3.6-0.1c1.2,0,2.4,0.1,3.6,0.1c1.1,0.1,2.2,0.2,3.3,0.4L42.9,6l0.3,1.4l0.5,2.3l0.4,1
	c1.9,0.5,3.7,1.1,5.5,1.8c1.8,0.7,3.5,1.6,5.2,2.6l1-0.4l2-1.3l1.2-0.8l1.8-0.9c1.9,1.4,3.6,2.9,5.3,4.5c1.6,1.6,3.1,3.4,4.5,5.3
	l-0.9,1.8l-0.8,1.2l-1.3,2l-0.4,1c1,1.6,1.9,3.4,2.6,5.2c0.7,1.8,1.3,3.6,1.8,5.5l1,0.4l2.3,0.5l1.4,0.3l1.9,0.6
	c0.2,1.1,0.3,2.2,0.4,3.3c0.1,1.2,0.1,2.4,0.1,3.6c0,1.2-0.1,2.4-0.1,3.6c-0.1,1-0.2,2-0.3,3"/>
<g class="st1">
	<path class="st2" d="M78.9,53.4c0.1-1,0.3-1.9,0.3-2.9c0.1-1.2,0.2-2.4,0.2-3.6c0-1.2-0.1-2.4-0.2-3.6c-0.1-1.2-0.3-2.4-0.5-3.6
		l-0.1-0.5L78.2,39L74,38.1l-1.8-0.4c-0.5-1.9-1.1-3.7-1.8-5.4c-0.7-1.8-1.6-3.5-2.6-5.1l1-1.6l2.4-3.6l0.3-0.4l-0.3-0.4
		c-1.4-2-3-3.8-4.7-5.6c-1.7-1.7-3.6-3.3-5.6-4.7l-0.4-0.3L60.1,11l-3.6,2.4l-1.6,1c-1.6-1-3.3-1.8-5.1-2.6
		c-1.7-0.7-3.6-1.3-5.4-1.8l-0.4-1.8L43.2,4l-0.1-0.5l-0.5-0.1C41.4,3.2,40.2,3.1,39,3c-1.2-0.1-2.4-0.2-3.6-0.2
		c-1.2,0-2.4,0.1-3.6,0.2c-1.2,0.1-2.4,0.3-3.6,0.5l-0.5,0.1L27.5,4l-0.9,4.2L26.3,10c-0.8,0.2-1.6,0.4-2.3,0.7
		c-0.9,0.3-1.8,0.6-2.7,1"/>
	<path class="st2" d="M21.7,13c0.8-0.3,1.7-0.7,2.6-0.9c0.9-0.3,1.8-0.5,2.7-0.7l0.4-0.1l0.1-0.4L28,8.5l0.8-3.7c1-0.2,2-0.3,3-0.4
		c1.2-0.1,2.3-0.1,3.5-0.1c1.2,0,2.4,0,3.5,0.1c1,0.1,2,0.2,3,0.4l0.8,3.7l0.5,2.3l0.1,0.4l0.4,0.1c1.9,0.5,3.8,1.1,5.6,1.8
		c1.8,0.8,3.6,1.7,5.3,2.7l0.4,0.2l0.4-0.2l1.9-1.3l3.2-2.1c1.8,1.3,3.4,2.7,5,4.3c1.6,1.6,3,3.2,4.3,5l-2.1,3.2l-1.3,1.9l-0.2,0.4
		l0.2,0.4c1,1.7,1.9,3.4,2.7,5.3c0.7,1.8,1.4,3.7,1.8,5.6L71,39l0.4,0.1l2.3,0.5l3.7,0.8c0.2,1,0.3,2,0.4,3c0.1,1.2,0.1,2.3,0.1,3.5
		s0,2.4-0.1,3.5c-0.1,1-0.2,2-0.4,3"/>
</g>
<path class="st3" d="M35.4,73.5c-7.3,0-14-3-18.8-7.8c-4.8-4.8-7.8-11.5-7.8-18.8c0-7.3,3-14,7.8-18.8c4.8-4.8,11.5-7.8,18.8-7.8
	c7.3,0,14,3,18.8,7.8C59,32.8,62,39.5,62,46.8c0,1.1-0.1,2.2-0.2,3.3c0,0.1,0,0.2,0,0.3c-0.1,1-0.3,2-0.6,2.9"/>
<g class="st1">
	<path class="st4" d="M60,53.4L60,53.4c0.3-1.1,0.5-2.1,0.6-3.2c0.1-1.1,0.2-2.2,0.2-3.3c0-7-2.9-13.4-7.5-18
		c-4.6-4.6-11-7.5-18-7.5c-7,0-13.4,2.9-18,7.5c-4.6,4.6-7.5,11-7.5,18c0,7,2.9,13.4,7.5,18c4.6,4.6,11,7.5,18,7.5"/>
	<path class="st4" d="M35.4,74.6c-7.7,0-14.6-3.1-19.6-8.1c-5-5-8.1-12-8.1-19.6c0-7.7,3.1-14.6,8.1-19.6c5-5,12-8.1,19.6-8.1
		c7.7,0,14.6,3.1,19.6,8.1c5,5,8.1,12,8.1,19.6c0,1.2-0.1,2.4-0.2,3.6c-0.1,1-0.3,2-0.5,2.9"/>
</g>
<path class="st0" d="M27.2,16.4c1.3-0.4,2.7-0.6,4-0.8c1.4-0.2,2.7-0.3,4.1-0.3c8.7,0,16.6,3.5,22.3,9.2c5.7,5.7,9.2,13.6,9.2,22.3
	c0,1.4-0.1,2.8-0.3,4.1c-0.1,0.8-0.2,1.6-0.4,2.4"/>
<g class="st1">
	<path class="st2" d="M67,53.4c0.2-0.8,0.3-1.5,0.4-2.3c0.2-1.4,0.3-2.8,0.3-4.2c0-8.9-3.6-17-9.5-22.8c-5.8-5.8-13.9-9.5-22.8-9.5
		c-1.4,0-2.8,0.1-4.2,0.3c-1.4,0.2-2.8,0.5-4.1,0.8"/>
	<path class="st2" d="M27.4,17.1c1.3-0.4,2.6-0.6,4-0.8c1.3-0.2,2.7-0.3,4-0.3c8.5,0,16.2,3.5,21.8,9c5.6,5.6,9,13.3,9,21.8
		c0,1.4-0.1,2.7-0.3,4c-0.1,0.8-0.3,1.7-0.4,2.5"/>
</g>
<path class="st5" d="M26.3,39.2c0.9-1,1.9-1.9,3.1-2.6l0,0c2.9-1.6,6.1-2,9-1.2c2.9,0.8,5.6,2.7,7.2,5.6l0,0c1.6,2.9,2,6.1,1.2,9
	c-0.8,2.9-2.7,5.6-5.6,7.2l0,0c-2.9,1.6-6.1,2-9,1.2c-2.9-0.8-5.6-2.7-7.2-5.6l0,0c-1.6-2.9-2-6.1-1.2-9
	C24.3,42.1,25.1,40.5,26.3,39.2"/>
<g class="st1">
	<path class="st2" d="M25.8,38.7c-1.2,1.4-2.1,3.1-2.6,4.9c-0.8,3.1-0.5,6.6,1.3,9.6v0c1.7,3,4.5,5.1,7.7,5.9
		c3.1,0.8,6.6,0.5,9.6-1.3h0c3-1.7,5.1-4.6,5.9-7.7c0.8-3.1,0.5-6.6-1.3-9.6v0c-1.7-3-4.6-5.1-7.7-5.9c-3.1-0.8-6.6-0.5-9.6,1.3h0
		C27.8,36.6,26.7,37.6,25.8,38.7"/>
	<path class="st2" d="M26.8,39.7c0.8-1,1.8-1.8,3-2.5l0,0c2.7-1.5,5.7-1.9,8.5-1.1c2.8,0.7,5.3,2.5,6.8,5.2l0,0
		c1.5,2.7,1.9,5.7,1.1,8.5c-0.7,2.8-2.5,5.3-5.2,6.8l0,0c-2.7,1.5-5.7,1.9-8.5,1.1c-2.8-0.7-5.3-2.5-6.8-5.2h0
		c-1.5-2.7-1.9-5.7-1.1-8.5C24.9,42.4,25.7,40.9,26.8,39.7"/>
</g>
<path class="st0" d="M20.7,38.4L20.7,38.4c-1.5,2.6-2.3,5.6-2.3,8.5c0,2.9,0.8,5.9,2.3,8.5l0,0c1.5,2.6,3.7,4.7,6.2,6.2
	c2.5,1.5,5.5,2.3,8.5,2.3"/>
<g class="st1">
	<path class="st2" d="M35.4,64.5c-3.2,0-6.2-0.8-8.8-2.4c-2.6-1.5-4.9-3.7-6.5-6.5l0,0c-1.6-2.7-2.4-5.8-2.4-8.8
		c0-3.1,0.8-6.1,2.4-8.8"/>
	<path class="st2" d="M21.3,38.7L21.3,38.7c-1.5,2.5-2.2,5.3-2.2,8.1c0,2.8,0.7,5.6,2.2,8.1v0c1.4,2.5,3.5,4.5,5.9,5.9
		c2.4,1.4,5.2,2.2,8.1,2.2"/>
</g>
<path class="st0" d="M35.4,29.9c3,0,5.9,0.8,8.5,2.3c2.5,1.5,4.7,3.6,6.2,6.2l0,0c1.5,2.6,2.2,5.4,2.3,8.3c0,0.1,0,0.2,0,0.3
	c0,2.2-0.5,4.3-1.3,6.4"/>
<g class="st1">
	<path class="st2" d="M50.2,53.4L50.2,53.4c0.9-2.1,1.4-4.3,1.4-6.5c0-2.8-0.7-5.6-2.2-8.1v0c-1.4-2.5-3.5-4.5-5.9-5.9
		c-2.4-1.4-5.2-2.2-8.1-2.2"/>
	<path class="st2" d="M35.4,29.2c3.2,0,6.2,0.8,8.8,2.4c2.6,1.5,4.9,3.7,6.5,6.5l0,0c1.6,2.7,2.4,5.8,2.4,8.8c0,2.2-0.4,4.4-1.3,6.5
		"/>
</g>
<path class="st6" d="M29.8,67.7c-4.7-1.3-8.7-4-11.5-7.7c-2.8-3.7-4.5-8.3-4.5-13.1c0-3.9,1-7.6,2.9-10.8c1.9-3.2,4.6-6,7.9-7.9"/>
<g class="st1">
	<path class="st2" d="M24.9,28.8L24.9,28.8c-3.2,1.9-5.8,4.5-7.6,7.6c-1.8,3.1-2.8,6.7-2.8,10.4c0,4.7,1.6,9.2,4.3,12.7
		c2.7,3.6,6.6,6.2,11.2,7.5"/>
	<path class="st2" d="M29.6,68.4c-4.9-1.3-9-4.2-11.9-8c-2.9-3.8-4.6-8.5-4.6-13.6c0-4,1.1-7.8,3-11.1c1.9-3.3,4.7-6.2,8.2-8.2"/>
</g>
<path class="st6" d="M46.2,28.2c3.3,1.9,6,4.7,7.9,7.9c1.9,3.2,2.9,6.9,2.9,10.8"/>
<g class="st1">
	<path class="st2" d="M56.2,46.8L56.2,46.8c0-3.7-1-7.3-2.8-10.4c-1.8-3.1-4.4-5.8-7.6-7.6"/>
	<path class="st2" d="M46.5,27.5c3.4,2,6.2,4.8,8.2,8.2c1.9,3.3,3,7.2,3,11.1"/>
</g>
<path class="st7" d="M68.3,64.6c0-1.1,0-2-0.1-2.8c-0.1-0.8-0.3-1.4-0.6-1.9c-0.3-0.5-0.7-0.9-1.2-1.2c-0.5-0.3-1.2-0.5-2.1-0.6
	c-0.9-0.1-2-0.2-3.2-0.3c-1.3,0-2.8-0.1-4.6-0.1c-1.7,0-3.1,0-4.3,0.1c-1.2,0-2.3,0.1-3.1,0.3c-0.9,0.1-1.6,0.3-2.1,0.6
	c-0.6,0.3-1,0.6-1.3,1.1c-0.3,0.5-0.6,1-0.7,1.7c-0.1,0.7-0.2,1.5-0.3,2.4c0,0.9-0.1,2-0.1,3.3c0,1.3,0,2.4,0.1,3.3
	c0,0.9,0.1,1.8,0.3,2.4c0.1,0.7,0.4,1.2,0.7,1.7c0.3,0.4,0.8,0.8,1.3,1.1c0.6,0.3,1.3,0.5,2.1,0.6c0.9,0.1,1.9,0.2,3.1,0.3
	c1.2,0,2.7,0.1,4.3,0.1c1.7,0,3.2,0,4.4,0c1.2,0,2.3-0.1,3.2-0.2c0.9-0.1,1.6-0.3,2.1-0.6c0.6-0.3,1-0.7,1.3-1.2
	c0.3-0.5,0.5-1.1,0.7-1.9c0.1-0.8,0.2-1.7,0.2-2.8c0-1.1,0-2.4,0-4H55.7v4.1h7c0,0.3,0,0.6,0,0.8c0,0.2-0.1,0.4-0.2,0.5
	c-0.1,0.1-0.3,0.2-0.6,0.3c-0.3,0.1-0.6,0.1-1.1,0.2c-0.5,0-1,0.1-1.8,0.1c-0.7,0-1.6,0-2.6,0c-1,0-1.9,0-2.6,0
	c-0.7,0-1.3-0.1-1.8-0.2c-0.5-0.1-0.8-0.2-1.1-0.4c-0.3-0.2-0.5-0.5-0.6-0.8c-0.1-0.3-0.2-0.8-0.2-1.3c0-0.5,0-1.2,0-1.9
	c0-0.8,0-1.4,0-2c0-0.5,0.1-1,0.2-1.3c0.1-0.3,0.3-0.6,0.6-0.8c0.3-0.2,0.6-0.3,1.1-0.4c0.5-0.1,1.1-0.1,1.8-0.2c0.7,0,1.6,0,2.6,0
	c1,0,1.9,0,2.6,0c0.7,0,1.3,0,1.8,0.1c0.5,0,0.8,0.1,1.1,0.2c0.3,0.1,0.4,0.2,0.6,0.4c0.1,0.2,0.2,0.4,0.2,0.6c0,0.2,0,0.5,0,0.9
	H68.3L68.3,64.6z"/>
<polygon class="st7" points="71.3,76.3 91,76.3 91,71.8 77,71.8 77,69.3 90.4,69.3 90.4,64.9 77,64.9 77,62.4 91,62.4 91,58
	71.3,58 71.3,76.3 "/>
<path class="st7" d="M112.7,68.6V58h-9.5l-10.1,7.6v7.2h14v3.6h5.6v-3.6h3.3v-4.1H112.7z M107.1,68.6h-9v-0.5l7.7-5.4h1.4V68.6z"/>
<path class="st7" d="M139.7,69.7c-0.2-0.3-0.5-0.5-0.8-0.7c-0.3-0.2-0.7-0.4-1.2-0.6c0.5-0.2,0.8-0.4,1.2-0.7c0.3-0.3,0.6-0.6,0.8-1
	c0.2-0.4,0.4-0.9,0.4-1.5c0.1-0.6,0.1-1.2,0.1-2c0-1-0.1-1.9-0.3-2.6c-0.2-0.7-0.6-1.2-1-1.6c-0.5-0.4-1-0.7-1.8-0.9
	c-0.7-0.2-1.5-0.3-2.5-0.3h-16.4v18.3h5.6v-5.1h8.9c0.4,0,0.6,0.1,0.9,0.2c0.2,0.1,0.4,0.3,0.6,0.4c0.1,0.2,0.2,0.4,0.3,0.6
	c0.1,0.2,0.1,0.4,0.1,0.6v3.3h5.6v-4.1c0-0.6,0-1.1-0.1-1.5C140.1,70.3,139.9,70,139.7,69.7z M134.4,65.7c-0.1,0.3-0.3,0.5-0.6,0.6
	c-0.3,0.1-0.6,0.2-1,0.2h-9v-3.7h9c0.4,0,0.7,0.1,1,0.2c0.3,0.1,0.4,0.3,0.6,0.6c0.1,0.3,0.2,0.6,0.2,1.1
	C134.6,65,134.6,65.4,134.4,65.7z"/>
<path class="st7" d="M162,61.2c-0.4-0.8-1-1.4-1.7-1.8c-0.7-0.4-1.6-0.6-2.6-0.6h-14.3v17.5h2.6v-6.4h11.6c1,0,1.9-0.2,2.7-0.6
	c0.8-0.4,1.3-1,1.8-1.8c0.4-0.8,0.6-1.9,0.6-3.1C162.6,63.1,162.4,62,162,61.2z M159.7,66.1c-0.2,0.5-0.5,0.8-0.9,1
	c-0.4,0.2-0.8,0.3-1.3,0.3H146v-6.4h11.6c0.5,0,0.9,0.1,1.3,0.3c0.4,0.2,0.7,0.6,0.9,1c0.2,0.5,0.3,1.1,0.3,1.8
	C160,65,159.9,65.7,159.7,66.1z"/>
<path class="st7" d="M184.1,64.1c-0.1-1-0.2-1.8-0.4-2.4c-0.2-0.7-0.6-1.2-1-1.6c-0.4-0.4-1-0.7-1.7-1c-0.7-0.2-1.6-0.4-2.7-0.5
	c-1.1-0.1-2.4-0.1-3.9-0.1c-1.5,0-2.8,0-3.9,0.1c-1.1,0.1-2,0.2-2.7,0.5c-0.7,0.2-1.3,0.5-1.8,1c-0.4,0.4-0.8,1-1,1.6
	c-0.2,0.7-0.4,1.5-0.4,2.4c-0.1,1-0.1,2.1-0.1,3.4c0,1.3,0,2.5,0.1,3.5c0.1,1,0.3,1.8,0.5,2.4c0.2,0.7,0.6,1.2,1.1,1.6
	c0.5,0.4,1.1,0.7,1.8,0.9c0.7,0.2,1.6,0.4,2.7,0.4c1.1,0.1,2.3,0.1,3.7,0.1c1.4,0,2.7,0,3.7-0.1c1.1-0.1,1.9-0.2,2.7-0.4
	c0.7-0.2,1.3-0.5,1.8-0.9c0.5-0.4,0.8-0.9,1-1.6c0.2-0.7,0.4-1.5,0.5-2.5c0.1-1,0.1-2.1,0.1-3.5C184.2,66.2,184.1,65.1,184.1,64.1z
	 M181.5,70c0,0.7-0.1,1.3-0.3,1.8c-0.2,0.5-0.4,0.9-0.7,1.2c-0.3,0.3-0.7,0.5-1.3,0.7c-0.5,0.2-1.2,0.3-2,0.3
	c-0.8,0.1-1.8,0.1-2.9,0.1c-1.2,0-2.2,0-3-0.1c-0.8-0.1-1.5-0.2-2-0.4c-0.5-0.2-1-0.4-1.3-0.8c-0.3-0.3-0.5-0.7-0.7-1.2
	c-0.1-0.5-0.2-1.1-0.3-1.8c0-0.7-0.1-1.5,0-2.4c0-1.1,0-2,0.1-2.7c0-0.7,0.1-1.4,0.3-1.9c0.1-0.5,0.4-0.9,0.7-1.1
	c0.3-0.3,0.7-0.5,1.3-0.6c0.5-0.1,1.2-0.2,2-0.2c0.8,0,1.8-0.1,3,0c1.1,0,2.1,0,2.9,0.1c0.8,0,1.5,0.1,2,0.3c0.5,0.1,1,0.4,1.3,0.6
	c0.3,0.3,0.5,0.7,0.7,1.2c0.1,0.5,0.2,1.1,0.3,1.8c0,0.7,0.1,1.6,0.1,2.6C181.6,68.5,181.5,69.3,181.5,70z"/>
<polygon class="st7" points="188.7,58.8 186.1,58.8 186.1,76.3 202.2,76.3 202.2,73.9 188.7,73.9 188.7,58.8 "/>
<polygon class="st7" points="206,58.8 203.4,58.8 203.4,76.3 206,76.3 206,58.8 "/>
</svg>
